Oswald--800.ufo
<glyph name="parenleft" format="1">
  <advance width="716"/>
  <unicode hex="0028"/>
  <outline>
    <contour>
      <point x="641" y="-356" type="curve"/>
      <point x="641" y="-97" type="line"/>
      <point x="508" y="-97"/>
      <point x="457" y="104"/>
      <point x="457" y="651" type="curve" smooth="yes"/>
      <point x="457" y="1190"/>
      <point x="497" y="1419"/>
      <point x="641" y="1419" type="curve"/>
      <point x="641" y="1678" type="line"/>
      <point x="172" y="1681"/>
      <point x="121" y="1234"/>
      <point x="121" y="651" type="curve" smooth="yes"/>
      <point x="121" y="117"/>
      <point x="172" y="-360"/>
    </contour>
  </outline>
</glyph>
<glyph name="asterisk" format="1">
  <advance width="880"/>
  <unicode hex="002A"/>
  <outline>
    <contour>
      <point x="363" y="911" type="line"/>
      <point x="457" y="1117" type="line"/>
      <point x="553" y="911" type="line"/>
      <point x="771" y="1039" type="line"/>
      <point x="625" y="1239" type="line"/>
      <point x="840" y="1321" type="line"/>
      <point x="759" y="1540" type="line"/>
      <point x="569" y="1432" type="line"/>
      <point x="594" y="1658" type="line"/>
      <point x="321" y="1658" type="line"/>
      <point x="348" y="1434" type="line"/>
      <point x="158" y="1539" type="line"/>
      <point x="77" y="1323" type="line"/>
      <point x="290" y="1241" type="line"/>
      <point x="148" y="1038" type="line"/>
    </contour>
  </outline>
</glyph>
<glyph name="four" format="1">
  <advance width="1123"/>
  <unicode hex="0034"/>
  <outline>
    <contour>
      <point x="580" y="0" type="line"/>
      <point x="910" y="0" type="line"/>
      <point x="910" y="366" type="line"/>
      <point x="1060" y="366" type="line"/>
      <point x="1060" y="624" type="line"/>
      <point x="910" y="624" type="line"/>
      <point x="910" y="1658" type="line"/>
      <point x="499" y="1658" type="line"/>
      <point x="65" y="621" type="line"/>
      <point x="65" y="366" type="line"/>
      <point x="580" y="366" type="line"/>
    </contour>
    <contour>
      <point x="329" y="624" type="line"/>
      <point x="580" y="1309" type="line"/>
      <point x="580" y="624" type="line"/>
    </contour>
  </outline>
</glyph>
<glyph name="question" format="1">
  <advance width="990"/>
  <unicode hex="003F"/>
  <outline>
    <contour>
      <point x="245" y="442" type="line"/>
      <point x="580" y="442" type="line"/>
      <point x="580" y="643" type="line"/>
      <point x="768" y="751"/>
      <point x="922" y="1031"/>
      <point x="922" y="1268" type="curve" smooth="yes"/>
      <point x="922" y="1531"/>
      <point x="760" y="1687"/>
      <point x="458" y="1687" type="curve" smooth="yes"/>
      <point x="144" y="1687"/>
      <point x="52" y="1505"/>
      <point x="54" y="1297" type="curve" smooth="yes"/>
      <point x="54" y="1215"/>
      <point x="67" y="1179"/>
      <point x="90" y="1088" type="curve"/>
      <point x="419" y="1166" type="line"/>
      <point x="403" y="1217"/>
      <point x="394" y="1224"/>
      <point x="394" y="1282" type="curve" smooth="yes"/>
      <point x="393" y="1340"/>
      <point x="431" y="1372"/>
      <point x="468" y="1372" type="curve" smooth="yes"/>
      <point x="505" y="1372"/>
      <point x="551" y="1366"/>
      <point x="558" y="1284" type="curve" smooth="yes"/>
      <point x="577" y="1066"/>
      <point x="422" y="850"/>
      <point x="245" y="709" type="curve"/>
    </contour>
    <contour>
      <point x="236" y="0" type="line"/>
      <point x="591" y="0" type="line"/>
      <point x="591" y="344" type="line"/>
      <point x="236" y="344" type="line"/>
    </contour>
  </outline>
</glyph>
<glyph name="E" format="1">
  <advance width="941"/>
  <unicode hex="0045"/>
  <outline>
    <contour>
      <point x="120" y="0" type="line"/>
      <point x="900" y="0" type="line"/>
      <point x="900" y="271" type="line"/>
      <point x="526" y="271" type="line"/>
      <point x="526" y="734" type="line"/>
      <point x="802" y="734" type="line"/>
      <point x="802" y="1016" type="line"/>
      <point x="526" y="1016" type="line"/>
      <point x="526" y="1386" type="line"/>
      <point x="896" y="1386" type="line"/>
      <point x="896" y="1658" type="line"/>
      <point x="120" y="1658" type="line"/>
    </contour>
  </outline>
</glyph>
<glyph name="Q" format="1">
  <advance width="1227"/>
  <unicode hex="0051"/>
  <outline>
    <contour>
      <point x="998" y="-323" type="curve"/>
      <point x="1086" y="-96" type="line"/>
      <point x="1029" y="-68"/>
      <point x="968" y="-14"/>
      <point x="916" y="40" type="curve"/>
      <point x="1069" y="125"/>
      <point x="1127" y="292"/>
      <point x="1127" y="523" type="curve" smooth="yes"/>
      <point x="1127" y="1135" type="line" smooth="yes"/>
      <point x="1127" y="1482"/>
      <point x="997" y="1684"/>
      <point x="612" y="1684" type="curve" smooth="yes"/>
      <point x="227" y="1684"/>
      <point x="100" y="1482"/>
      <point x="100" y="1135" type="curve" smooth="yes"/>
      <point x="100" y="523" type="line" smooth="yes"/>
      <point x="100" y="177"/>
      <point x="227" y="-26"/>
      <point x="612" y="-26" type="curve" smooth="yes"/>
      <point x="623" y="-26"/>
      <point x="634" y="-25"/>
      <point x="645" y="-25" type="curve"/>
      <point x="734" y="-162"/>
      <point x="911" y="-289"/>
    </contour>
    <contour>
      <point x="612" y="255" type="curve" smooth="yes"/>
      <point x="518" y="255"/>
      <point x="517" y="350"/>
      <point x="517" y="420" type="curve" smooth="yes"/>
      <point x="517" y="1239" type="line" smooth="yes"/>
      <point x="517" y="1310"/>
      <point x="518" y="1403"/>
      <point x="612" y="1403" type="curve" smooth="yes"/>
      <point x="705" y="1403"/>
      <point x="710" y="1310"/>
      <point x="710" y="1239" type="curve" smooth="yes"/>
      <point x="710" y="420" type="line" smooth="yes"/>
      <point x="710" y="350"/>
      <point x="705" y="255"/>
    </contour>
  </outline>
</glyph>
<glyph name="S" format="1">
  <advance width="1077"/>
  <unicode hex="0053"/>
  <outline>
    <contour>
      <point x="575" y="-26" type="curve" smooth="yes"/>
      <point x="849" y="-26"/>
      <point x="1020" y="165"/>
      <point x="1020" y="397" type="curve" smooth="yes"/>
      <point x="1020" y="632"/>
      <point x="903" y="774"/>
      <point x="757" y="905" type="curve" smooth="yes"/>
      <point x="661" y="990" type="line" smooth="yes"/>
      <point x="580" y="1062"/>
      <point x="486" y="1134"/>
      <point x="486" y="1275" type="curve" smooth="yes"/>
      <point x="486" y="1315"/>
      <point x="505" y="1390"/>
      <point x="561" y="1391" type="curve" smooth="yes"/>
      <point x="633" y="1391"/>
      <point x="635" y="1308"/>
      <point x="635" y="1165" type="curve"/>
      <point x="987" y="1200" type="line"/>
      <point x="986" y="1365"/>
      <point x="957" y="1684"/>
      <point x="576" y="1684" type="curve" smooth="yes"/>
      <point x="276" y="1683"/>
      <point x="89" y="1525"/>
      <point x="89" y="1235" type="curve" smooth="yes"/>
      <point x="89" y="1008"/>
      <point x="201" y="894"/>
      <point x="330" y="783" type="curve" smooth="yes"/>
      <point x="435" y="694" type="line" smooth="yes"/>
      <point x="551" y="595"/>
      <point x="618" y="515"/>
      <point x="618" y="378" type="curve" smooth="yes"/>
      <point x="618" y="343"/>
      <point x="614" y="280"/>
      <point x="550" y="280" type="curve" smooth="yes"/>
      <point x="485" y="280"/>
      <point x="434" y="331"/>
      <point x="433" y="557" type="curve"/>
      <point x="89" y="512" type="line"/>
      <point x="99" y="118"/>
      <point x="254" y="-26"/>
    </contour>
  </outline>
</glyph>
<glyph name="V" format="1">
  <advance width="1090"/>
  <unicode hex="0056"/>
  <outline>
    <contour>
      <point x="324" y="0" type="line"/>
      <point x="764" y="0" type="line"/>
      <point x="1048" y="1658" type="line"/>
      <point x="681" y="1658" type="line"/>
      <point x="540" y="561" type="line"/>
      <point x="386" y="1658" type="line"/>
      <point x="45" y="1658" type="line"/>
    </contour>
  </outline>
</glyph>
<glyph name="X" format="1">
  <advance width="1074"/>
  <unicode hex="0058"/>
  <outline>
    <contour>
      <point x="10" y="0" type="line"/>
      <point x="339" y="0" type="line"/>
      <point x="502" y="458" type="line"/>
      <point x="684" y="0" type="line"/>
      <point x="1064" y="0" type="line"/>
      <point x="756" y="782" type="line"/>
      <point x="1029" y="1658" type="line"/>
      <point x="696" y="1658" type="line"/>
      <point x="573" y="1249" type="line"/>
      <point x="412" y="1658" type="line"/>
      <point x="26" y="1658" type="line"/>
      <point x="326" y="902" type="line"/>
    </contour>
  </outline>
</glyph>
<glyph name="a" format="1">
  <advance width="1006"/>
  <unicode hex="0061"/>
  <outline>
    <contour>
      <point x="357" y="-22" type="curve"/>
      <point x="477" y="-22"/>
      <point x="551" y="65"/>
      <point x="580" y="165" type="curve"/>
      <point x="581" y="161"/>
      <point x="607" y="0"/>
      <point x="607" y="0" type="curve"/>
      <point x="932" y="0" type="line"/>
      <point x="926" y="53"/>
      <point x="911" y="139"/>
      <point x="911" y="298" type="curve" smooth="yes"/>
      <point x="911" y="855" type="line" smooth="yes"/>
      <point x="911" y="1053"/>
      <point x="784" y="1206"/>
      <point x="543" y="1206" type="curve" smooth="yes"/>
      <point x="273" y="1206"/>
      <point x="124" y="1085"/>
      <point x="103" y="817" type="curve" smooth="yes"/>
      <point x="103" y="816"/>
      <point x="100" y="781"/>
      <point x="100" y="780" type="curve"/>
      <point x="438" y="766" type="line"/>
      <point x="449" y="861" type="line"/>
      <point x="452" y="899"/>
      <point x="461" y="934"/>
      <point x="507" y="934" type="curve" smooth="yes"/>
      <point x="550" y="934"/>
      <point x="563" y="898"/>
      <point x="563" y="860" type="curve" smooth="yes"/>
      <point x="563" y="732" type="line"/>
      <point x="396" y="663"/>
      <point x="69" y="592"/>
      <point x="69" y="271" type="curve" smooth="yes"/>
      <point x="69" y="133"/>
      <point x="164" y="-18"/>
    </contour>
    <contour>
      <point x="484" y="216" type="curve" smooth="yes"/>
      <point x="437" y="216"/>
      <point x="395" y="260"/>
      <point x="395" y="335" type="curve" smooth="yes"/>
      <point x="395" y="408"/>
      <point x="452" y="532"/>
      <point x="563" y="584" type="curve"/>
      <point x="563" y="262" type="line"/>
      <point x="541" y="232"/>
      <point x="512" y="216"/>
    </contour>
  </outline>
</glyph>
<glyph name="b" format="1">
  <advance width="1071"/>
  <unicode hex="0062"/>
  <outline>
    <contour>
      <point x="737" y="-22" type="curve" smooth="yes"/>
      <point x="886" y="-22"/>
      <point x="985" y="98"/>
      <point x="985" y="310" type="curve" smooth="yes"/>
      <point x="985" y="885" type="line" smooth="yes"/>
      <point x="985" y="1091"/>
      <point x="896" y="1199"/>
      <point x="738" y="1206" type="curve" smooth="yes"/>
      <point x="658" y="1210"/>
      <point x="560" y="1176"/>
      <point x="469" y="1099" type="curve"/>
      <point x="469" y="1658" type="line"/>
      <point x="102" y="1658" type="line"/>
      <point x="102" y="0" type="line"/>
      <point x="469" y="0" type="line"/>
      <point x="469" y="90" type="line"/>
      <point x="555" y="19"/>
      <point x="650" y="-22"/>
    </contour>
    <contour>
      <point x="543" y="206" type="curve" smooth="yes"/>
      <point x="521" y="206"/>
      <point x="494" y="216"/>
      <point x="469" y="231" type="curve"/>
      <point x="469" y="962" type="line"/>
      <point x="496" y="981"/>
      <point x="524" y="994"/>
      <point x="543" y="997" type="curve" smooth="yes"/>
      <point x="590" y="1003"/>
      <point x="618" y="963"/>
      <point x="618" y="918" type="curve" smooth="yes"/>
      <point x="618" y="286" type="line" smooth="yes"/>
      <point x="618" y="241"/>
      <point x="591" y="205"/>
    </contour>
  </outline>
</glyph>
<glyph name="h" format="1">
  <advance width="1081"/>
  <unicode hex="0068"/>
  <outline>
    <contour>
      <point x="103" y="0" type="line"/>
      <point x="469" y="0" type="line"/>
      <point x="469" y="917" type="line"/>
      <point x="506" y="940"/>
      <point x="538" y="949"/>
      <point x="561" y="951" type="curve" smooth="yes"/>
      <point x="606" y="953"/>
      <point x="620" y="926"/>
      <point x="620" y="876" type="curve" smooth="yes"/>
      <point x="620" y="0" type="line"/>
      <point x="986" y="0" type="line"/>
      <point x="986" y="919" type="line" smooth="yes"/>
      <point x="986" y="1090"/>
      <point x="900" y="1206"/>
      <point x="755" y="1206" type="curve" smooth="yes"/>
      <point x="653" y="1206"/>
      <point x="560" y="1176"/>
      <point x="469" y="1084" type="curve"/>
      <point x="469" y="1658" type="line"/>
      <point x="103" y="1658" type="line"/>
    </contour>
  </outline>
</glyph>
<glyph name="i" format="1">
  <advance width="566"/>
  <unicode hex="0069"/>
  <outline>
    <contour>
      <point x="101" y="0" type="line"/>
      <point x="468" y="0" type="line"/>
      <point x="468" y="1184" type="line"/>
      <point x="101" y="1184" type="line"/>
    </contour>
    <contour>
      <point x="99" y="1390" type="line"/>
      <point x="468" y="1390" type="line"/>
      <point x="468" y="1625" type="line"/>
      <point x="99" y="1625" type="line"/>
    </contour>
  </outline>
</glyph>
<glyph name="j" format="1">
  <advance width="593"/>
  <unicode hex="006A"/>
  <outline>
    <contour>
      <point x="-12" y="-359" type="line"/>
      <point x="50" y="-376"/>
      <point x="114" y="-389"/>
      <point x="185" y="-389" type="curve" smooth="yes"/>
      <point x="393" y="-389"/>
      <point x="495" y="-250"/>
      <point x="495" y="-63" type="curve" smooth="yes"/>
      <point x="495" y="1184" type="line"/>
      <point x="128" y="1184" type="line"/>
      <point x="128" y="-17" type="line" smooth="yes"/>
      <point x="128" y="-85"/>
      <point x="92" y="-105"/>
      <point x="47" y="-105" type="curve" smooth="yes"/>
      <point x="28" y="-105"/>
      <point x="8" y="-100"/>
      <point x="-12" y="-96" type="curve"/>
    </contour>
    <contour>
      <point x="126" y="1390" type="line"/>
      <point x="495" y="1390" type="line"/>
      <point x="495" y="1625" type="line"/>
      <point x="126" y="1625" type="line"/>
    </contour>
  </outline>
</glyph>
<glyph name="k" format="1">
  <advance width="1175"/>
  <unicode hex="006B"/>
  <outline>
    <contour>
      <point x="102" y="0" type="line"/>
      <point x="465" y="0" type="line"/>
      <point x="465" y="449" type="line"/>
      <point x="551" y="550" type="line"/>
      <point x="755" y="0" type="line"/>
      <point x="1164" y="0" type="line"/>
      <point x="840" y="693" type="line"/>
      <point x="1165" y="1184" type="line"/>
      <point x="747" y="1184" type="line"/>
      <point x="465" y="757" type="line"/>
      <point x="465" y="1658" type="line"/>
      <point x="102" y="1658" type="line"/>
    </contour>
  </outline>
</glyph>
<glyph name="p" format="1">
  <advance width="1069"/>
  <unicode hex="0070"/>
  <outline>
    <contour>
      <point x="102" y="-390" type="line"/>
      <point x="469" y="-390" type="line"/>
      <point x="469" y="90" type="line"/>
      <point x="554" y="19"/>
      <point x="649" y="-22"/>
      <point x="735" y="-22" type="curve" smooth="yes"/>
      <point x="884" y="-22"/>
      <point x="983" y="98"/>
      <point x="983" y="310" type="curve" smooth="yes"/>
      <point x="983" y="885" type="line" smooth="yes"/>
      <point x="983" y="1091"/>
      <point x="894" y="1199"/>
      <point x="736" y="1206" type="curve" smooth="yes"/>
      <point x="657" y="1209"/>
      <point x="560" y="1176"/>
      <point x="469" y="1100" type="curve"/>
      <point x="469" y="1184" type="line"/>
      <point x="102" y="1184" type="line"/>
    </contour>
    <contour>
      <point x="538" y="206" type="curve" smooth="yes"/>
      <point x="518" y="206"/>
      <point x="493" y="216"/>
      <point x="469" y="230" type="curve"/>
      <point x="469" y="963" type="line"/>
      <point x="495" y="981"/>
      <point x="519" y="994"/>
      <point x="538" y="997" type="curve" smooth="yes"/>
      <point x="585" y="1003"/>
      <point x="616" y="963"/>
      <point x="616" y="918" type="curve" smooth="yes"/>
      <point x="616" y="286" type="line" smooth="yes"/>
      <point x="616" y="241"/>
      <point x="586" y="205"/>
    </contour>
  </outline>
</glyph>
<glyph name="t" format="1">
  <advance width="751"/>
  <unicode hex="0074"/>
  <outline>
    <contour>
      <point x="443" y="-13" type="curve" smooth="yes"/>
      <point x="573" y="-19"/>
      <point x="662" y="-1"/>
      <point x="699" y="6" type="curve"/>
      <point x="699" y="299" type="line"/>
      <point x="697" y="298"/>
      <point x="653" y="286"/>
      <point x="606" y="289" type="curve" smooth="yes"/>
      <point x="552" y="292"/>
      <point x="501" y="316"/>
      <point x="501" y="377" type="curve" smooth="yes"/>
      <point x="501" y="945" type="line"/>
      <point x="664" y="945" type="line"/>
      <point x="664" y="1184" type="line"/>
      <point x="501" y="1184" type="line"/>
      <point x="501" y="1549" type="line"/>
      <point x="130" y="1549" type="line"/>
      <point x="130" y="1184" type="line"/>
      <point x="19" y="1184" type="line"/>
      <point x="19" y="945" type="line"/>
      <point x="130" y="945" type="line"/>
      <point x="130" y="461" type="line" smooth="yes"/>
      <point x="130" y="228"/>
      <point x="155" y="-1"/>
    </contour>
  </outline>
</glyph>
<glyph name="v" format="1">
  <advance width="884"/>
  <unicode hex="0076"/>
  <outline>
    <contour>
      <point x="256" y="0" type="line"/>
      <point x="625" y="0" type="line"/>
      <point x="874" y="1184" type="line"/>
      <point x="525" y="1184" type="line"/>
      <point x="450" y="486" type="line"/>
      <point x="366" y="1184" type="line"/>
      <point x="18" y="1184" type="line"/>
    </contour>
  </outline>
</glyph>
<glyph name="x" format="1">
  <advance width="939"/>
  <unicode hex="0078"/>
  <outline>
    <contour>
      <point x="22" y="0" type="line"/>
      <point x="320" y="0" type="line"/>
      <point x="426" y="303" type="line"/>
      <point x="560" y="0" type="line"/>
      <point x="935" y="0" type="line"/>
      <point x="669" y="601" type="line"/>
      <point x="893" y="1184" type="line"/>
      <point x="625" y="1184" type="line"/>
      <point x="525" y="925" type="line"/>
      <point x="410" y="1184" type="line"/>
      <point x="38" y="1184" type="line"/>
      <point x="270" y="658" type="line"/>
    </contour>
  </outline>
</glyph>
<glyph name="braceleft" format="1">
  <advance width="810"/>
  <unicode hex="007B"/>
  <outline>
    <contour>
      <point x="742" y="-396" type="curve"/>
      <point x="742" y="-156" type="line"/>
      <point x="596" y="-156"/>
      <point x="570" y="-127"/>
      <point x="570" y="74" type="curve" smooth="yes"/>
      <point x="570" y="219" type="line" smooth="yes"/>
      <point x="570" y="459"/>
      <point x="540" y="615"/>
      <point x="380" y="652" type="curve"/>
      <point x="540" y="689"/>
      <point x="570" y="845"/>
      <point x="570" y="1086" type="curve" smooth="yes"/>
      <point x="570" y="1230" type="line" smooth="yes"/>
      <point x="570" y="1432"/>
      <point x="596" y="1461"/>
      <point x="742" y="1461" type="curve"/>
      <point x="742" y="1701" type="line"/>
      <point x="285" y="1701"/>
      <point x="239" y="1566"/>
      <point x="239" y="1254" type="curve" smooth="yes"/>
      <point x="239" y="1127" type="line" smooth="yes"/>
      <point x="239" y="815"/>
      <point x="238" y="785"/>
      <point x="102" y="785" type="curve"/>
      <point x="102" y="519" type="line"/>
      <point x="238" y="519"/>
      <point x="239" y="489"/>
      <point x="239" y="177" type="curve" smooth="yes"/>
      <point x="239" y="50" type="line" smooth="yes"/>
      <point x="239" y="-262"/>
      <point x="285" y="-396"/>
    </contour>
  </outline>
</glyph>
<glyph name="braceright" format="1">
  <advance width="812"/>
  <unicode hex="007D"/>
  <outline>
    <contour>
      <point x="71" y="-396" type="line"/>
      <point x="528" y="-396"/>
      <point x="573" y="-262"/>
      <point x="573" y="50" type="curve" smooth="yes"/>
      <point x="573" y="177" type="line" smooth="yes"/>
      <point x="573" y="489"/>
      <point x="575" y="519"/>
      <point x="710" y="519" type="curve"/>
      <point x="710" y="785" type="line"/>
      <point x="575" y="785"/>
      <point x="573" y="815"/>
      <point x="573" y="1127" type="curve" smooth="yes"/>
      <point x="573" y="1254" type="line" smooth="yes"/>
      <point x="573" y="1566"/>
      <point x="528" y="1701"/>
      <point x="71" y="1701" type="curve"/>
      <point x="71" y="1461" type="line"/>
      <point x="217" y="1461"/>
      <point x="243" y="1432"/>
      <point x="243" y="1230" type="curve" smooth="yes"/>
      <point x="243" y="1086" type="line" smooth="yes"/>
      <point x="243" y="845"/>
      <point x="273" y="689"/>
      <point x="433" y="652" type="curve"/>
      <point x="273" y="615"/>
      <point x="243" y="459"/>
      <point x="243" y="219" type="curve" smooth="yes"/>
      <point x="243" y="74" type="line" smooth="yes"/>
      <point x="243" y="-127"/>
      <point x="217" y="-156"/>
      <point x="71" y="-156" type="curve"/>
    </contour>
  </outline>
</glyph>
<glyph name="brokenbar" format="1">
  <advance width="447"/>
  <unicode hex="00A6"/>
  <outline>
    <contour>
      <point x="99" y="-387" type="line"/>
      <point x="348" y="-387" type="line"/>
      <point x="348" y="447" type="line"/>
      <point x="99" y="447" type="line"/>
    </contour>
    <contour>
      <point x="99" y="824" type="line"/>
      <point x="348" y="824" type="line"/>
      <point x="348" y="1658" type="line"/>
      <point x="99" y="1658" type="line"/>
    </contour>
  </outline>
</glyph>
<glyph name="copyright" format="1">
  <advance width="1822"/>
  <unicode hex="00A9"/>
  <outline>
    <contour>
      <point x="909" y="252" type="curve" smooth="yes"/>
      <point x="1176" y="252"/>
      <point x="1363" y="363"/>
      <point x="1363" y="588" type="curve" smooth="yes"/>
      <point x="1363" y="739" type="line"/>
      <point x="978" y="739" type="line"/>
      <point x="978" y="585" type="line" smooth="yes"/>
      <point x="978" y="511"/>
      <point x="946" y="498"/>
      <point x="909" y="498" type="curve" smooth="yes"/>
      <point x="874" y="498"/>
      <point x="844" y="519"/>
      <point x="844" y="595" type="curve" smooth="yes"/>
      <point x="844" y="1071" type="line" smooth="yes"/>
      <point x="844" y="1146"/>
      <point x="873" y="1169"/>
      <point x="909" y="1169" type="curve" smooth="yes"/>
      <point x="946" y="1169"/>
      <point x="978" y="1156"/>
      <point x="978" y="1081" type="curve" smooth="yes"/>
      <point x="978" y="945" type="line"/>
      <point x="1363" y="945" type="line"/>
      <point x="1363" y="1079" type="line" smooth="yes"/>
      <point x="1363" y="1304"/>
      <point x="1176" y="1412"/>
      <point x="909" y="1412" type="curve" smooth="yes"/>
      <point x="640" y="1412"/>
      <point x="448" y="1284"/>
      <point x="448" y="1058" type="curve" smooth="yes"/>
      <point x="448" y="608" type="line" smooth="yes"/>
      <point x="448" y="382"/>
      <point x="640" y="252"/>
    </contour>
    <contour>
      <point x="914" y="52" type="curve" smooth="yes"/>
      <point x="410" y="52"/>
      <point x="191" y="436"/>
      <point x="191" y="827" type="curve" smooth="yes"/>
      <point x="191" y="1219"/>
      <point x="410" y="1598"/>
      <point x="914" y="1598" type="curve" smooth="yes"/>
      <point x="1415" y="1598"/>
      <point x="1635" y="1219"/>
      <point x="1635" y="827" type="curve" smooth="yes"/>
      <point x="1635" y="436"/>
      <point x="1415" y="52"/>
    </contour>
    <contour>
      <point x="912" y="-28" type="curve" smooth="yes"/>
      <point x="1492" y="-28"/>
      <point x="1725" y="415"/>
      <point x="1725" y="829" type="curve" smooth="yes"/>
      <point x="1725" y="1242"/>
      <point x="1490" y="1685"/>
      <point x="912" y="1685" type="curve" smooth="yes"/>
      <point x="332" y="1685"/>
      <point x="96" y="1242"/>
      <point x="96" y="829" type="curve" smooth="yes"/>
      <point x="96" y="417"/>
      <point x="332" y="-28"/>
    </contour>
  </outline>
</glyph>
<glyph name="ordfeminine" format="1">
  <advance width="1012"/>
  <unicode hex="00AA"/>
  <outline>
    <contour>
      <point x="376" y="637" type="curve"/>
      <point x="488" y="637"/>
      <point x="558" y="710"/>
      <point x="587" y="795" type="curve"/>
      <point x="611" y="656" type="line"/>
      <point x="899" y="656" type="line"/>
      <point x="899" y="1380" type="line" smooth="yes"/>
      <point x="899" y="1550"/>
      <point x="780" y="1682"/>
      <point x="551" y="1682" type="curve" smooth="yes"/>
      <point x="296" y="1682"/>
      <point x="135" y="1579"/>
      <point x="134" y="1319" type="curve"/>
      <point x="453" y="1308" type="line"/>
      <point x="466" y="1419"/>
      <point x="475" y="1450"/>
      <point x="518" y="1450" type="curve" smooth="yes"/>
      <point x="557" y="1450"/>
      <point x="570" y="1419"/>
      <point x="570" y="1386" type="curve" smooth="yes"/>
      <point x="570" y="1276" type="line"/>
      <point x="413" y="1218"/>
      <point x="103" y="1158"/>
      <point x="103" y="886" type="curve" smooth="yes"/>
      <point x="103" y="768"/>
      <point x="193" y="641"/>
    </contour>
    <contour>
      <point x="496" y="841" type="curve" smooth="yes"/>
      <point x="451" y="841"/>
      <point x="412" y="878"/>
      <point x="412" y="941" type="curve" smooth="yes"/>
      <point x="412" y="1001"/>
      <point x="466" y="1107"/>
      <point x="570" y="1152" type="curve"/>
      <point x="570" y="880" type="line"/>
      <point x="549" y="853"/>
      <point x="521" y="841"/>
    </contour>
  </outline>
</glyph>
<glyph name="logicalnot" format="1">
  <advance width="1087"/>
  <unicode hex="00AC"/>
  <outline>
    <contour>
      <point x="798" y="389" type="line"/>
      <point x="978" y="389" type="line"/>
      <point x="978" y="981" type="line"/>
      <point x="99" y="981" type="line"/>
      <point x="99" y="740" type="line"/>
      <point x="798" y="740" type="line"/>
    </contour>
  </outline>
</glyph>
<glyph name="twosuperior" format="1">
  <advance width="879"/>
  <unicode hex="00B2"/>
  <outline>
    <contour>
      <point x="132" y="624" type="line"/>
      <point x="767" y="624" type="line"/>
      <point x="767" y="839" type="line"/>
      <point x="444" y="839" type="line"/>
      <point x="631" y="1132" type="line" smooth="yes"/>
      <point x="708" y="1253"/>
      <point x="801" y="1368"/>
      <point x="801" y="1519" type="curve" smooth="yes"/>
      <point x="801" y="1718"/>
      <point x="674" y="1838"/>
      <point x="463" y="1838" type="curve" smooth="yes"/>
      <point x="223" y="1838"/>
      <point x="126" y="1671"/>
      <point x="126" y="1461" type="curve" smooth="yes"/>
      <point x="126" y="1393" type="line"/>
      <point x="392" y="1393" type="line"/>
      <point x="392" y="1544"/>
      <point x="403" y="1591"/>
      <point x="451" y="1604" type="curve" smooth="yes"/>
      <point x="496" y="1615"/>
      <point x="536" y="1590"/>
      <point x="536" y="1523" type="curve" smooth="yes"/>
      <point x="536" y="1427"/>
      <point x="458" y="1337"/>
      <point x="407" y="1259" type="curve" smooth="yes"/>
      <point x="132" y="838" type="line"/>
    </contour>
  </outline>
</glyph>
<glyph name="threesuperior" format="1">
  <advance width="878"/>
  <unicode hex="00B3"/>
  <outline>
    <contour>
      <point x="455" y="602" type="curve" smooth="yes"/>
      <point x="700" y="602"/>
      <point x="790" y="760"/>
      <point x="790" y="980" type="curve" smooth="yes"/>
      <point x="790" y="1153"/>
      <point x="726" y="1218"/>
      <point x="652" y="1247" type="curve"/>
      <point x="726" y="1266"/>
      <point x="790" y="1371"/>
      <point x="790" y="1509" type="curve" smooth="yes"/>
      <point x="790" y="1729"/>
      <point x="660" y="1838"/>
      <point x="450" y="1838" type="curve" smooth="yes"/>
      <point x="245" y="1838"/>
      <point x="115" y="1718"/>
      <point x="115" y="1496" type="curve" smooth="yes"/>
      <point x="115" y="1412" type="line"/>
      <point x="386" y="1412" type="line"/>
      <point x="386" y="1489" type="line" smooth="yes"/>
      <point x="386" y="1568"/>
      <point x="399" y="1621"/>
      <point x="451" y="1621" type="curve" smooth="yes"/>
      <point x="504" y="1621"/>
      <point x="522" y="1577"/>
      <point x="522" y="1489" type="curve" smooth="yes"/>
      <point x="522" y="1372"/>
      <point x="502" y="1313"/>
      <point x="400" y="1313" type="curve" smooth="yes"/>
      <point x="353" y="1313" type="line"/>
      <point x="353" y="1142" type="line"/>
      <point x="405" y="1142" type="line" smooth="yes"/>
      <point x="503" y="1142"/>
      <point x="522" y="1087"/>
      <point x="522" y="971" type="curve" smooth="yes"/>
      <point x="522" y="872"/>
      <point x="510" y="831"/>
      <point x="459" y="831" type="curve" smooth="yes"/>
      <point x="405" y="831"/>
      <point x="386" y="869"/>
      <point x="386" y="992" type="curve" smooth="yes"/>
      <point x="386" y="1041" type="line"/>
      <point x="115" y="1041" type="line"/>
      <point x="115" y="997" type="line" smooth="yes"/>
      <point x="115" y="764"/>
      <point x="187" y="602"/>
    </contour>
  </outline>
</glyph>
<glyph name="periodcentered" format="1">
  <advance width="491"/>
  <unicode hex="00B7"/>
  <outline>
    <contour>
      <point x="75" y="603" type="line"/>
      <point x="417" y="603" type="line"/>
      <point x="417" y="937" type="line"/>
      <point x="75" y="937" type="line"/>
    </contour>
  </outline>
</glyph>
<glyph name="onesuperior" format="1">
  <advance width="878"/>
  <unicode hex="00B9"/>
  <outline>
    <contour>
      <point x="351" y="624" type="line"/>
      <point x="627" y="624" type="line"/>
      <point x="627" y="1818" type="line"/>
      <point x="410" y="1818" type="line"/>
      <point x="365" y="1760"/>
      <point x="192" y="1703"/>
      <point x="150" y="1685" type="curve"/>
      <point x="150" y="1479" type="line"/>
      <point x="351" y="1533" type="line"/>
    </contour>
  </outline>
</glyph>
<glyph name="ordmasculine" format="1">
  <advance width="1012"/>
  <unicode hex="00BA"/>
  <outline>
    <contour>
      <point x="504" y="637" type="curve" smooth="yes"/>
      <point x="708" y="637"/>
      <point x="870" y="734"/>
      <point x="870" y="942" type="curve" smooth="yes"/>
      <point x="870" y="1378" type="line" smooth="yes"/>
      <point x="870" y="1586"/>
      <point x="708" y="1683"/>
      <point x="504" y="1683" type="curve" smooth="yes"/>
      <point x="300" y="1683"/>
      <point x="142" y="1586"/>
      <point x="142" y="1378" type="curve" smooth="yes"/>
      <point x="142" y="942" type="line" smooth="yes"/>
      <point x="142" y="735"/>
      <point x="300" y="637"/>
    </contour>
    <contour>
      <point x="505" y="849" type="curve" smooth="yes"/>
      <point x="466" y="849"/>
      <point x="438" y="876"/>
      <point x="438" y="938" type="curve" smooth="yes"/>
      <point x="438" y="1382" type="line" smooth="yes"/>
      <point x="438" y="1445"/>
      <point x="466" y="1471"/>
      <point x="505" y="1471" type="curve" smooth="yes"/>
      <point x="546" y="1471"/>
      <point x="575" y="1447"/>
      <point x="575" y="1382" type="curve" smooth="yes"/>
      <point x="575" y="938" type="line" smooth="yes"/>
      <point x="575" y="874"/>
      <point x="546" y="849"/>
    </contour>
  </outline>
</glyph>
<glyph name="onehalf" format="1">
  <advance width="1320"/>
  <unicode hex="00BD"/>
  <outline>
    <contour>
      <point x="770" y="0" type="line"/>
      <point x="1226" y="0" type="line"/>
      <point x="1226" y="158" type="line"/>
      <point x="983" y="158" type="line"/>
      <point x="984" y="160"/>
      <point x="1117" y="348"/>
      <point x="1118" y="350" type="curve"/>
      <point x="1195" y="466"/>
      <point x="1247" y="549"/>
      <point x="1247" y="660" type="curve" smooth="yes"/>
      <point x="1247" y="806"/>
      <point x="1148" y="888"/>
      <point x="991" y="888" type="curve" smooth="yes"/>
      <point x="829" y="888"/>
      <point x="745" y="786"/>
      <point x="745" y="650" type="curve" smooth="yes"/>
      <point x="745" y="638"/>
      <point x="745" y="625"/>
      <point x="751" y="563" type="curve"/>
      <point x="928" y="563" type="line"/>
      <point x="912" y="648"/>
      <point x="941" y="728"/>
      <point x="997" y="728" type="curve" smooth="yes"/>
      <point x="1042" y="728"/>
      <point x="1065" y="696"/>
      <point x="1065" y="656" type="curve" smooth="yes"/>
      <point x="1065" y="587"/>
      <point x="1013" y="514"/>
      <point x="966" y="443" type="curve"/>
      <point x="770" y="158" type="line"/>
    </contour>
    <contour>
      <point x="153" y="827" type="line"/>
      <point x="357" y="827" type="line"/>
      <point x="357" y="1658" type="line"/>
      <point x="231" y="1658" type="line"/>
      <point x="191" y="1608"/>
      <point x="134" y="1551"/>
      <point x="30" y="1494" type="curve"/>
      <point x="30" y="1328" type="line"/>
      <point x="153" y="1403" type="line"/>
    </contour>
    <contour>
      <point x="92" y="0" type="line"/>
      <point x="249" y="0" type="line"/>
      <point x="1093" y="1658" type="line"/>
      <point x="935" y="1658" type="line"/>
    </contour>
  </outline>
</glyph>
<glyph name="questiondown" format="1">
  <advance width="1068"/>
  <unicode hex="00BF"/>
  <outline>
    <contour>
      <point x="551" y="-364" type="curve" smooth="yes"/>
      <point x="865" y="-364"/>
      <point x="957" y="-182"/>
      <point x="955" y="25" type="curve" smooth="yes"/>
      <point x="955" y="108"/>
      <point x="942" y="144"/>
      <point x="919" y="235" type="curve"/>
      <point x="590" y="157" type="line"/>
      <point x="606" y="106"/>
      <point x="615" y="98"/>
      <point x="615" y="41" type="curve" smooth="yes"/>
      <point x="616" y="-17"/>
      <point x="578" y="-49"/>
      <point x="541" y="-49" type="curve" smooth="yes"/>
      <point x="504" y="-49"/>
      <point x="458" y="-43"/>
      <point x="451" y="39" type="curve" smooth="yes"/>
      <point x="432" y="257"/>
      <point x="587" y="473"/>
      <point x="764" y="613" type="curve"/>
      <point x="764" y="881" type="line"/>
      <point x="429" y="881" type="line"/>
      <point x="429" y="680" type="line"/>
      <point x="241" y="572"/>
      <point x="87" y="292"/>
      <point x="87" y="54" type="curve" smooth="yes"/>
      <point x="87" y="-208"/>
      <point x="249" y="-364"/>
    </contour>
    <contour>
      <point x="417" y="979" type="line"/>
      <point x="773" y="979" type="line"/>
      <point x="773" y="1323" type="line"/>
      <point x="417" y="1323" type="line"/>
    </contour>
  </outline>
</glyph>
<glyph name="AE" format="1">
  <advance width="1493"/>
  <unicode hex="00C6"/>
  <outline>
    <contour>
      <point x="-5" y="0" type="line"/>
      <point x="406" y="0" type="line"/>
      <point x="536" y="325" type="line"/>
      <point x="792" y="325" type="line"/>
      <point x="792" y="0" type="line"/>
      <point x="1461" y="0" type="line"/>
      <point x="1461" y="271" type="line"/>
      <point x="1133" y="271" type="line"/>
      <point x="1133" y="715" type="line"/>
      <point x="1364" y="715" type="line"/>
      <point x="1364" y="997" type="line"/>
      <point x="1133" y="997" type="line"/>
      <point x="1133" y="1354" type="line"/>
      <point x="1461" y="1354" type="line"/>
      <point x="1461" y="1627" type="line"/>
      <point x="724" y="1627" type="line"/>
    </contour>
    <contour>
      <point x="615" y="573" type="line"/>
      <point x="792" y="1050" type="line"/>
      <point x="792" y="573" type="line"/>
    </contour>
  </outline>
</glyph>
<glyph name="multiply" format="1">
  <advance width="1057"/>
  <unicode hex="00D7"/>
  <outline>
    <contour>
      <point x="278" y="448" type="line"/>
      <point x="530" y="701" type="line"/>
      <point x="783" y="448" type="line"/>
      <point x="945" y="611" type="line"/>
      <point x="692" y="864" type="line"/>
      <point x="945" y="1118" type="line"/>
      <point x="781" y="1279" type="line"/>
      <point x="530" y="1027" type="line"/>
      <point x="277" y="1279" type="line"/>
      <point x="114" y="1115" type="line"/>
      <point x="366" y="864" type="line"/>
      <point x="114" y="611" type="line"/>
    </contour>
  </outline>
</glyph>
<glyph name="Hbar" format="1">
  <advance width="1094"/>
  <unicode hex="0126"/>
  <outline>
    <contour>
      <point x="63" y="0" type="line"/>
      <point x="468" y="0" type="line"/>
      <point x="468" y="711" type="line"/>
      <point x="656" y="711" type="line"/>
      <point x="656" y="0" type="line"/>
      <point x="1062" y="0" type="line"/>
      <point x="1062" y="1257" type="line"/>
      <point x="1137" y="1257" type="line"/>
      <point x="1137" y="1370" type="line"/>
      <point x="1062" y="1370" type="line"/>
      <point x="1062" y="1658" type="line"/>
      <point x="656" y="1658" type="line"/>
      <point x="656" y="1370" type="line"/>
      <point x="468" y="1370" type="line"/>
      <point x="468" y="1658" type="line"/>
      <point x="63" y="1658" type="line"/>
      <point x="63" y="1370" type="line"/>
      <point x="-43" y="1370" type="line"/>
      <point x="-43" y="1257" type="line"/>
      <point x="63" y="1257" type="line"/>
    </contour>
    <contour>
      <point x="468" y="1002" type="line"/>
      <point x="468" y="1257" type="line"/>
      <point x="656" y="1257" type="line"/>
      <point x="656" y="1002" type="line"/>
    </contour>
  </outline>
</glyph>
<glyph name="hbar" format="1">
  <advance width="1083"/>
  <unicode hex="0127"/>
  <outline>
    <contour>
      <point x="104" y="0" type="line"/>
      <point x="471" y="0" type="line"/>
      <point x="471" y="917" type="line"/>
      <point x="508" y="940"/>
      <point x="540" y="949"/>
      <point x="563" y="951" type="curve" smooth="yes"/>
      <point x="608" y="953"/>
      <point x="622" y="926"/>
      <point x="622" y="876" type="curve" smooth="yes"/>
      <point x="622" y="0" type="line"/>
      <point x="988" y="0" type="line"/>
      <point x="988" y="919" type="line" smooth="yes"/>
      <point x="988" y="1090"/>
      <point x="902" y="1206"/>
      <point x="757" y="1206" type="curve" smooth="yes"/>
      <point x="655" y="1206"/>
      <point x="562" y="1176"/>
      <point x="471" y="1084" type="curve"/>
      <point x="471" y="1363" type="line"/>
      <point x="708" y="1363" type="line"/>
      <point x="708" y="1525" type="line"/>
      <point x="471" y="1525" type="line"/>
      <point x="471" y="1658" type="line"/>
      <point x="104" y="1658" type="line"/>
      <point x="104" y="1525" type="line"/>
      <point x="19" y="1525" type="line"/>
      <point x="19" y="1363" type="line"/>
      <point x="104" y="1363" type="line"/>
    </contour>
  </outline>
</glyph>
<glyph name="kgreenlandic" format="1">
  <advance width="1087"/>
  <unicode hex="0138"/>
  <outline>
    <contour>
      <point x="96" y="0" type="line"/>
      <point x="463" y="0" type="line"/>
      <point x="463" y="487" type="line"/>
      <point x="500" y="537" type="line"/>
      <point x="684" y="0" type="line"/>
      <point x="1073" y="0" type="line"/>
      <point x="833" y="634" type="line"/>
      <point x="1067" y="1184" type="line"/>
      <point x="667" y="1184" type="line"/>
      <point x="463" y="699" type="line"/>
      <point x="463" y="1184" type="line"/>
      <point x="96" y="1184" type="line"/>
    </contour>
  </outline>
</glyph>
<glyph name="lslash" format="1">
  <advance width="723"/>
  <unicode hex="0142"/>
  <outline>
    <contour>
      <point x="178" y="0" type="line"/>
      <point x="544" y="0" type="line"/>
      <point x="544" y="1001" type="line"/>
      <point x="710" y="1070" type="line"/>
      <point x="710" y="1262" type="line"/>
      <point x="544" y="1192" type="line"/>
      <point x="544" y="1658" type="line"/>
      <point x="178" y="1658" type="line"/>
      <point x="178" y="1038" type="line"/>
      <point x="43" y="981" type="line"/>
      <point x="43" y="789" type="line"/>
      <point x="178" y="846" type="line"/>
    </contour>
  </outline>
</glyph>
<glyph name="OE" format="1">
  <advance width="1490"/>
  <unicode hex="0152"/>
  <outline>
    <contour>
      <point x="608" y="0" type="curve" smooth="yes"/>
      <point x="1438" y="0" type="line"/>
      <point x="1438" y="271" type="line"/>
      <point x="1111" y="271" type="line"/>
      <point x="1111" y="715" type="line"/>
      <point x="1343" y="715" type="line"/>
      <point x="1343" y="997" type="line"/>
      <point x="1111" y="997" type="line"/>
      <point x="1111" y="1379" type="line"/>
      <point x="1438" y="1379" type="line"/>
      <point x="1438" y="1650" type="line"/>
      <point x="608" y="1650" type="line"/>
      <point x="221" y="1649"/>
      <point x="100" y="1380"/>
      <point x="100" y="1049" type="curve" smooth="yes"/>
      <point x="100" y="588" type="line" smooth="yes"/>
      <point x="100" y="239"/>
      <point x="229" y="0"/>
    </contour>
    <contour>
      <point x="609" y="276" type="line"/>
      <point x="511" y="275"/>
      <point x="505" y="408"/>
      <point x="505" y="489" type="curve" smooth="yes"/>
      <point x="505" y="1146" type="line" smooth="yes"/>
      <point x="505" y="1226"/>
      <point x="511" y="1364"/>
      <point x="608" y="1364" type="curve" smooth="yes"/>
      <point x="706" y="1364" type="line"/>
      <point x="706" y="276" type="line"/>
    </contour>
  </outline>
</glyph>
<glyph name="uni030A" format="1">
  <advance width="24"/>
  <unicode hex="030A"/>
  <outline>
    <contour>
      <point x="3" y="1236" type="curve" smooth="yes"/>
      <point x="131" y="1236"/>
      <point x="246" y="1310"/>
      <point x="246" y="1460" type="curve" smooth="yes"/>
      <point x="246" y="1610"/>
      <point x="130" y="1684"/>
      <point x="3" y="1684" type="curve" smooth="yes"/>
      <point x="-124" y="1684"/>
      <point x="-238" y="1611"/>
      <point x="-238" y="1460" type="curve" smooth="yes"/>
      <point x="-238" y="1310"/>
      <point x="-124" y="1236"/>
    </contour>
    <contour>
      <point x="3" y="1355" type="curve" smooth="yes"/>
      <point x="-62" y="1355"/>
      <point x="-95" y="1406"/>
      <point x="-95" y="1460" type="curve" smooth="yes"/>
      <point x="-95" y="1513"/>
      <point x="-62" y="1565"/>
      <point x="3" y="1565" type="curve" smooth="yes"/>
      <point x="68" y="1565"/>
      <point x="99" y="1513"/>
      <point x="99" y="1460" type="curve" smooth="yes"/>
      <point x="99" y="1406"/>
      <point x="68" y="1355"/>
    </contour>
  </outline>
</glyph>
<glyph name="afii10053" format="1">
  <advance width="1164"/>
  <unicode hex="0404"/>
  <outline>
    <contour>
      <point x="613" y="-26" type="curve" smooth="yes"/>
      <point x="998" y="-26"/>
      <point x="1108" y="187"/>
      <point x="1108" y="463" type="curve" smooth="yes"/>
      <point x="1108" y="549" type="line"/>
      <point x="709" y="549" type="line"/>
      <point x="709" y="421" type="line" smooth="yes"/>
      <point x="709" y="350"/>
      <point x="707" y="255"/>
      <point x="613" y="255" type="curve" smooth="yes"/>
      <point x="521" y="255"/>
      <point x="513" y="348"/>
      <point x="513" y="421" type="curve" smooth="yes"/>
      <point x="513" y="725" type="line"/>
      <point x="735" y="725" type="line"/>
      <point x="735" y="933" type="line"/>
      <point x="513" y="933" type="line"/>
      <point x="513" y="1237" type="line" smooth="yes"/>
      <point x="513" y="1309"/>
      <point x="519" y="1403"/>
      <point x="613" y="1403" type="curve" smooth="yes"/>
      <point x="707" y="1403"/>
      <point x="709" y="1309"/>
      <point x="709" y="1238" type="curve" smooth="yes"/>
      <point x="709" y="1094" type="line"/>
      <point x="1108" y="1094" type="line"/>
      <point x="1108" y="1205" type="line" smooth="yes"/>
      <point x="1108" y="1481"/>
      <point x="997" y="1684"/>
      <point x="613" y="1684" type="curve" smooth="yes"/>
      <point x="227" y="1684"/>
      <point x="100" y="1475"/>
      <point x="100" y="1128" type="curve" smooth="yes"/>
      <point x="100" y="529" type="line" smooth="yes"/>
      <point x="100" y="184"/>
      <point x="227" y="-26"/>
    </contour>
  </outline>
</glyph>
<glyph name="afii10054" format="1">
  <advance width="988"/>
  <unicode hex="0405"/>
  <outline>
    <contour>
      <point x="520" y="-26" type="curve" smooth="yes"/>
      <point x="795" y="-26"/>
      <point x="965" y="165"/>
      <point x="965" y="397" type="curve" smooth="yes"/>
      <point x="965" y="632"/>
      <point x="848" y="774"/>
      <point x="702" y="905" type="curve" smooth="yes"/>
      <point x="606" y="990" type="line" smooth="yes"/>
      <point x="525" y="1062"/>
      <point x="431" y="1134"/>
      <point x="431" y="1275" type="curve" smooth="yes"/>
      <point x="431" y="1315"/>
      <point x="451" y="1390"/>
      <point x="507" y="1391" type="curve" smooth="yes"/>
      <point x="579" y="1391"/>
      <point x="580" y="1308"/>
      <point x="580" y="1165" type="curve"/>
      <point x="933" y="1200" type="line"/>
      <point x="931" y="1365"/>
      <point x="912" y="1684"/>
      <point x="531" y="1684" type="curve" smooth="yes"/>
      <point x="231" y="1683"/>
      <point x="34" y="1525"/>
      <point x="34" y="1235" type="curve" smooth="yes"/>
      <point x="34" y="1008"/>
      <point x="147" y="894"/>
      <point x="276" y="783" type="curve" smooth="yes"/>
      <point x="380" y="694" type="line" smooth="yes"/>
      <point x="496" y="595"/>
      <point x="563" y="515"/>
      <point x="563" y="378" type="curve" smooth="yes"/>
      <point x="563" y="343"/>
      <point x="559" y="280"/>
      <point x="495" y="280" type="curve" smooth="yes"/>
      <point x="430" y="280"/>
      <point x="379" y="331"/>
      <point x="379" y="557" type="curve"/>
      <point x="34" y="512" type="line"/>
      <point x="44" y="118"/>
      <point x="199" y="-26"/>
    </contour>
  </outline>
</glyph>
<glyph name="afii10060" format="1">
  <advance width="1265"/>
  <unicode hex="040B"/>
  <outline>
    <contour>
      <point x="236" y="0" type="line"/>
      <point x="641" y="0" type="line"/>
      <point x="641" y="753" type="line"/>
      <point x="675" y="771"/>
      <point x="708" y="779"/>
      <point x="732" y="780" type="curve" smooth="yes"/>
      <point x="777" y="782"/>
      <point x="789" y="759"/>
      <point x="789" y="719" type="curve" smooth="yes"/>
      <point x="789" y="0" type="line"/>
      <point x="1156" y="0" type="line"/>
      <point x="1156" y="754" type="line" smooth="yes"/>
      <point x="1156" y="895"/>
      <point x="1065" y="990"/>
      <point x="900" y="990" type="curve" smooth="yes"/>
      <point x="770" y="990"/>
      <point x="641" y="936"/>
      <point x="641" y="936" type="curve"/>
      <point x="641" y="1358" type="line"/>
      <point x="866" y="1358" type="line"/>
      <point x="866" y="1658" type="line"/>
      <point x="16" y="1658" type="line"/>
      <point x="16" y="1358" type="line"/>
      <point x="236" y="1358" type="line"/>
    </contour>
  </outline>
</glyph>
<glyph name="afii10021" format="1">
  <advance width="1459"/>
  <unicode hex="0414"/>
  <outline>
    <contour>
      <point x="40" y="-375" type="line"/>
      <point x="316" y="-375" type="line"/>
      <point x="336" y="0" type="line"/>
      <point x="1144" y="0" type="line"/>
      <point x="1164" y="-375" type="line"/>
      <point x="1424" y="-375" type="line"/>
      <point x="1424" y="289" type="line"/>
      <point x="1228" y="289" type="line"/>
      <point x="1228" y="1658" type="line"/>
      <point x="436" y="1658" type="line"/>
      <point x="386" y="1053" type="line" smooth="yes"/>
      <point x="345" y="549"/>
      <point x="247" y="326"/>
      <point x="80" y="289" type="curve"/>
      <point x="40" y="289" type="line"/>
    </contour>
    <contour>
      <point x="462" y="289" type="line"/>
      <point x="563" y="377"/>
      <point x="678" y="477"/>
      <point x="715" y="1022" type="curve" smooth="yes"/>
      <point x="736" y="1373" type="line"/>
      <point x="855" y="1373" type="line"/>
      <point x="855" y="289" type="line"/>
    </contour>
  </outline>
</glyph>
<glyph name="afii10035" format="1">
  <advance width="1180"/>
  <unicode hex="0421"/>
  <outline>
    <contour>
      <point x="609" y="-26" type="curve" smooth="yes"/>
      <point x="994" y="-26"/>
      <point x="1104" y="187"/>
      <point x="1104" y="463" type="curve" smooth="yes"/>
      <point x="1104" y="611" type="line"/>
      <point x="705" y="611" type="line"/>
      <point x="705" y="421" type="line" smooth="yes"/>
      <point x="705" y="350"/>
      <point x="703" y="255"/>
      <point x="609" y="255" type="curve" smooth="yes"/>
      <point x="517" y="255"/>
      <point x="509" y="348"/>
      <point x="509" y="421" type="curve" smooth="yes"/>
      <point x="509" y="1237" type="line" smooth="yes"/>
      <point x="509" y="1309"/>
      <point x="516" y="1403"/>
      <point x="609" y="1403" type="curve" smooth="yes"/>
      <point x="704" y="1403"/>
      <point x="705" y="1309"/>
      <point x="705" y="1238" type="curve" smooth="yes"/>
      <point x="705" y="1056" type="line"/>
      <point x="1104" y="1056" type="line"/>
      <point x="1104" y="1205" type="line" smooth="yes"/>
      <point x="1104" y="1481"/>
      <point x="994" y="1684"/>
      <point x="609" y="1684" type="curve" smooth="yes"/>
      <point x="224" y="1684"/>
      <point x="96" y="1475"/>
      <point x="96" y="1128" type="curve" smooth="yes"/>
      <point x="96" y="529" type="line" smooth="yes"/>
      <point x="96" y="184"/>
      <point x="224" y="-26"/>
    </contour>
  </outline>
</glyph>
<glyph name="afii10037" format="1">
  <advance width="1194"/>
  <unicode hex="0423"/>
  <outline>
    <contour>
      <point x="109" y="-349" type="line"/>
      <point x="550" y="-351"/>
      <point x="724" y="-291"/>
      <point x="813" y="95" type="curve" smooth="yes"/>
      <point x="1171" y="1658" type="line"/>
      <point x="790" y="1658" type="line"/>
      <point x="672" y="988" type="line"/>
      <point x="628" y="564" type="line"/>
      <point x="566" y="986" type="line"/>
      <point x="422" y="1658" type="line"/>
      <point x="47" y="1658" type="line"/>
      <point x="432" y="163" type="line" smooth="yes"/>
      <point x="483" y="-38"/>
      <point x="327" y="-90"/>
      <point x="109" y="-89" type="curve"/>
    </contour>
  </outline>
</glyph>
<glyph name="afii10038" format="1">
  <advance width="1611"/>
  <unicode hex="0424"/>
  <outline>
    <contour>
      <point x="649" y="-55" type="line"/>
      <point x="962" y="-55" type="line"/>
      <point x="962" y="181" type="line"/>
      <point x="962" y="181"/>
      <point x="1003" y="179"/>
      <point x="1003" y="179" type="curve"/>
      <point x="1299" y="155"/>
      <point x="1516" y="347"/>
      <point x="1516" y="574" type="curve" smooth="yes"/>
      <point x="1516" y="1099" type="line" smooth="yes"/>
      <point x="1516" y="1326"/>
      <point x="1299" y="1518"/>
      <point x="988" y="1495" type="curve"/>
      <point x="988" y="1495"/>
      <point x="962" y="1494"/>
      <point x="962" y="1494" type="curve"/>
      <point x="962" y="1741" type="line"/>
      <point x="649" y="1741" type="line"/>
      <point x="649" y="1493" type="line"/>
      <point x="608" y="1495" type="line"/>
      <point x="313" y="1518"/>
      <point x="95" y="1326"/>
      <point x="95" y="1100" type="curve" smooth="yes"/>
      <point x="95" y="575" type="line" smooth="yes"/>
      <point x="95" y="348"/>
      <point x="311" y="155"/>
      <point x="624" y="179" type="curve"/>
      <point x="649" y="180" type="line"/>
    </contour>
    <contour>
      <point x="618" y="431" type="curve" smooth="yes"/>
      <point x="500" y="431"/>
      <point x="450" y="510"/>
      <point x="450" y="569" type="curve" smooth="yes"/>
      <point x="450" y="1106" type="line" smooth="yes"/>
      <point x="450" y="1166"/>
      <point x="501" y="1252"/>
      <point x="615" y="1256" type="curve" smooth="yes"/>
      <point x="625" y="1257"/>
      <point x="638" y="1256"/>
      <point x="649" y="1255" type="curve"/>
      <point x="649" y="433" type="line"/>
      <point x="639" y="432"/>
      <point x="628" y="431"/>
    </contour>
    <contour>
      <point x="996" y="432" type="curve" smooth="yes"/>
      <point x="985" y="432"/>
      <point x="973" y="433"/>
      <point x="962" y="434" type="curve"/>
      <point x="962" y="1256" type="line"/>
      <point x="971" y="1256"/>
      <point x="982" y="1256"/>
      <point x="991" y="1256" type="curve" smooth="yes"/>
      <point x="1110" y="1250"/>
      <point x="1162" y="1164"/>
      <point x="1162" y="1105" type="curve" smooth="yes"/>
      <point x="1162" y="568" type="line" smooth="yes"/>
      <point x="1162" y="505"/>
      <point x="1107" y="432"/>
    </contour>
  </outline>
</glyph>
<glyph name="afii10047" format="1">
  <advance width="1210"/>
  <unicode hex="042D"/>
  <outline>
    <contour>
      <point x="597" y="-26" type="curve" smooth="yes"/>
      <point x="983" y="-26"/>
      <point x="1110" y="183"/>
      <point x="1110" y="530" type="curve" smooth="yes"/>
      <point x="1110" y="1129" type="line" smooth="yes"/>
      <point x="1110" y="1474"/>
      <point x="983" y="1684"/>
      <point x="597" y="1684" type="curve" smooth="yes"/>
      <point x="212" y="1684"/>
      <point x="102" y="1471"/>
      <point x="102" y="1195" type="curve" smooth="yes"/>
      <point x="102" y="1111" type="line"/>
      <point x="501" y="1111" type="line"/>
      <point x="501" y="1237" type="line" smooth="yes"/>
      <point x="501" y="1308"/>
      <point x="503" y="1403"/>
      <point x="597" y="1403" type="curve" smooth="yes"/>
      <point x="689" y="1403"/>
      <point x="697" y="1310"/>
      <point x="697" y="1237" type="curve" smooth="yes"/>
      <point x="697" y="915" type="line"/>
      <point x="426" y="915" type="line"/>
      <point x="426" y="723" type="line"/>
      <point x="697" y="723" type="line"/>
      <point x="697" y="421" type="line" smooth="yes"/>
      <point x="697" y="349"/>
      <point x="691" y="255"/>
      <point x="597" y="255" type="curve" smooth="yes"/>
      <point x="503" y="255"/>
      <point x="501" y="349"/>
      <point x="501" y="420" type="curve" smooth="yes"/>
      <point x="501" y="542" type="line"/>
      <point x="102" y="542" type="line"/>
      <point x="102" y="453" type="line" smooth="yes"/>
      <point x="102" y="177"/>
      <point x="213" y="-26"/>
    </contour>
  </outline>
</glyph>
<glyph name="afii10049" format="1">
  <advance width="1277"/>
  <unicode hex="042F"/>
  <outline>
    <contour>
      <point x="18" y="0" type="line"/>
      <point x="454" y="0" type="line"/>
      <point x="683" y="646" type="line"/>
      <point x="683" y="646"/>
      <point x="696" y="646"/>
      <point x="696" y="646" type="curve"/>
      <point x="741" y="646" type="line"/>
      <point x="741" y="0" type="line"/>
      <point x="1147" y="0" type="line"/>
      <point x="1147" y="1658" type="line"/>
      <point x="692" y="1658" type="line" smooth="yes"/>
      <point x="351" y="1658"/>
      <point x="119" y="1570"/>
      <point x="119" y="1152" type="curve" smooth="yes"/>
      <point x="119" y="967"/>
      <point x="203" y="813"/>
      <point x="323" y="735" type="curve"/>
    </contour>
    <contour>
      <point x="698" y="932" type="line"/>
      <point x="540" y="932"/>
      <point x="495" y="1037"/>
      <point x="495" y="1148" type="curve" smooth="yes"/>
      <point x="495" y="1299"/>
      <point x="562" y="1382"/>
      <point x="694" y="1382" type="curve" smooth="yes"/>
      <point x="741" y="1382" type="line"/>
      <point x="741" y="932" type="line"/>
    </contour>
  </outline>
</glyph>
<glyph name="afii10066" format="1">
  <advance width="1015"/>
  <unicode hex="0431"/>
  <outline>
    <contour>
      <point x="505" y="-20" type="curve" smooth="yes"/>
      <point x="762" y="-24"/>
      <point x="933" y="57"/>
      <point x="933" y="421" type="curve" smooth="yes"/>
      <point x="933" y="729" type="line" smooth="yes"/>
      <point x="933" y="1053"/>
      <point x="853" y="1178"/>
      <point x="617" y="1178" type="curve" smooth="yes"/>
      <point x="551" y="1178"/>
      <point x="470" y="1157"/>
      <point x="417" y="1130" type="curve"/>
      <point x="418" y="1190" type="line" smooth="yes"/>
      <point x="422" y="1500"/>
      <point x="540" y="1346"/>
      <point x="843" y="1490" type="curve"/>
      <point x="841" y="1766" type="line"/>
      <point x="456" y="1601"/>
      <point x="89" y="1724"/>
      <point x="89" y="1122" type="curve" smooth="yes"/>
      <point x="89" y="468" type="line" smooth="yes"/>
      <point x="89" y="165"/>
      <point x="141" y="-15"/>
    </contour>
    <contour>
      <point x="519" y="208" type="curve" smooth="yes"/>
      <point x="444" y="208"/>
      <point x="441" y="251"/>
      <point x="441" y="484" type="curve" smooth="yes"/>
      <point x="441" y="808" type="line" smooth="yes"/>
      <point x="443" y="933"/>
      <point x="464" y="972"/>
      <point x="517" y="972" type="curve" smooth="yes"/>
      <point x="582" y="972"/>
      <point x="591" y="929"/>
      <point x="591" y="801" type="curve" smooth="yes"/>
      <point x="591" y="485" type="line" smooth="yes"/>
      <point x="591" y="247"/>
      <point x="589" y="208"/>
    </contour>
  </outline>
</glyph>
<glyph name="afii10069" format="1">
  <advance width="1309"/>
  <unicode hex="0434"/>
  <outline>
    <contour>
      <point x="84" y="-327" type="line"/>
      <point x="350" y="-327" type="line"/>
      <point x="370" y="0" type="line"/>
      <point x="990" y="0" type="line"/>
      <point x="1013" y="-327" type="line"/>
      <point x="1275" y="-327" type="line"/>
      <point x="1275" y="220" type="line"/>
      <point x="1096" y="220" type="line"/>
      <point x="1096" y="1184" type="line"/>
      <point x="410" y="1184" type="line"/>
      <point x="367" y="731" type="line" smooth="yes"/>
      <point x="343" y="461"/>
      <point x="266" y="292"/>
      <point x="84" y="219" type="curve"/>
    </contour>
    <contour>
      <point x="488" y="220" type="line"/>
      <point x="572" y="296"/>
      <point x="631" y="424"/>
      <point x="649" y="644" type="curve" smooth="yes"/>
      <point x="679" y="972" type="line"/>
      <point x="764" y="972" type="line"/>
      <point x="764" y="220" type="line"/>
    </contour>
  </outline>
</glyph>
<glyph name="afii10072" format="1">
  <advance width="1400"/>
  <unicode hex="0436"/>
  <outline>
    <contour>
      <point x="16" y="0" type="line"/>
      <point x="314" y="0" type="line"/>
      <point x="513" y="569" type="line"/>
      <point x="538" y="569" type="line"/>
      <point x="538" y="0" type="line"/>
      <point x="845" y="0" type="line"/>
      <point x="845" y="569" type="line"/>
      <point x="869" y="569" type="line"/>
      <point x="1086" y="0" type="line"/>
      <point x="1384" y="0" type="line"/>
      <point x="1150" y="593" type="line"/>
      <point x="1372" y="1184" type="line"/>
      <point x="1057" y="1184" type="line"/>
      <point x="869" y="625" type="line"/>
      <point x="845" y="625" type="line"/>
      <point x="845" y="1184" type="line"/>
      <point x="538" y="1184" type="line"/>
      <point x="538" y="625" type="line"/>
      <point x="513" y="625" type="line"/>
      <point x="343" y="1184" type="line"/>
      <point x="28" y="1184" type="line"/>
      <point x="233" y="593" type="line"/>
    </contour>
  </outline>
</glyph>
<glyph name="afii10078" format="1">
  <advance width="1222"/>
  <unicode hex="043C"/>
  <outline>
    <contour>
      <point x="102" y="0" type="line"/>
      <point x="385" y="0" type="line"/>
      <point x="385" y="602" type="line"/>
      <point x="558" y="204" type="line"/>
      <point x="665" y="204" type="line"/>
      <point x="837" y="599" type="line"/>
      <point x="837" y="0" type="line"/>
      <point x="1120" y="0" type="line"/>
      <point x="1119" y="1184" type="line"/>
      <point x="847" y="1184" type="line"/>
      <point x="611" y="664" type="line"/>
      <point x="374" y="1184" type="line"/>
      <point x="103" y="1184" type="line"/>
    </contour>
  </outline>
</glyph>
<glyph name="afii10094" format="1">
  <advance width="1052"/>
  <unicode hex="044C"/>
  <outline>
    <contour>
      <point x="102" y="0" type="line"/>
      <point x="481" y="0" type="line" smooth="yes"/>
      <point x="841" y="0"/>
      <point x="991" y="101"/>
      <point x="991" y="346" type="curve" smooth="yes"/>
      <point x="991" y="628"/>
      <point x="802" y="712"/>
      <point x="474" y="712" type="curve" smooth="yes"/>
      <point x="473" y="712"/>
      <point x="469" y="712"/>
      <point x="469" y="712" type="curve"/>
      <point x="469" y="1184" type="line"/>
      <point x="102" y="1184" type="line"/>
    </contour>
    <contour>
      <point x="469" y="208" type="curve"/>
      <point x="469" y="495" type="line"/>
      <point x="472" y="495"/>
      <point x="475" y="495"/>
      <point x="477" y="495" type="curve" smooth="yes"/>
      <point x="600" y="493"/>
      <point x="658" y="464"/>
      <point x="658" y="343" type="curve" smooth="yes"/>
      <point x="658" y="245"/>
      <point x="607" y="211"/>
      <point x="476" y="208" type="curve" smooth="yes"/>
      <point x="474" y="208"/>
      <point x="471" y="208"/>
    </contour>
  </outline>
</glyph>
<glyph name="afii10107" format="1">
  <advance width="1542"/>
  <unicode hex="045A"/>
  <outline>
    <contour>
      <point x="102" y="0" type="line"/>
      <point x="469" y="0" type="line"/>
      <point x="469" y="405" type="line"/>
      <point x="618" y="405" type="line"/>
      <point x="618" y="2" type="line"/>
      <point x="985" y="2" type="line" smooth="yes"/>
      <point x="1340" y="3"/>
      <point x="1489" y="104"/>
      <point x="1489" y="348" type="curve" smooth="yes"/>
      <point x="1489" y="619"/>
      <point x="1313" y="708"/>
      <point x="1006" y="714" type="curve" smooth="yes"/>
      <point x="999" y="714"/>
      <point x="992" y="714"/>
      <point x="985" y="714" type="curve"/>
      <point x="985" y="1186" type="line"/>
      <point x="618" y="1186" type="line"/>
      <point x="618" y="714" type="line"/>
      <point x="469" y="714" type="line"/>
      <point x="469" y="1184" type="line"/>
      <point x="102" y="1184" type="line"/>
    </contour>
    <contour>
      <point x="985" y="210" type="curve"/>
      <point x="985" y="497" type="line"/>
      <point x="988" y="497"/>
      <point x="990" y="497"/>
      <point x="993" y="497" type="curve" smooth="yes"/>
      <point x="1103" y="492"/>
      <point x="1156" y="460"/>
      <point x="1156" y="345" type="curve" smooth="yes"/>
      <point x="1156" y="252"/>
      <point x="1110" y="216"/>
      <point x="994" y="211" type="curve" smooth="yes"/>
      <point x="991" y="211"/>
      <point x="988" y="210"/>
    </contour>
  </outline>
</glyph>
<glyph name="quoteright" format="1">
  <advance width="480"/>
  <unicode hex="2019"/>
  <outline>
    <contour>
      <point x="170" y="1065" type="line"/>
      <point x="370" y="1065"/>
      <point x="420" y="1182"/>
      <point x="432" y="1424" type="curve" smooth="yes"/>
      <point x="435" y="1490"/>
      <point x="436" y="1573"/>
      <point x="436" y="1658" type="curve"/>
      <point x="126" y="1658" type="line"/>
      <point x="126" y="1347" type="line"/>
      <point x="278" y="1347" type="line"/>
      <point x="278" y="1256"/>
      <point x="263" y="1177"/>
      <point x="150" y="1177" type="curve"/>
    </contour>
  </outline>
</glyph>
<glyph name="quotedblright" format="1">
  <advance width="970"/>
  <unicode hex="201D"/>
  <outline>
    <contour>
      <point x="169" y="1065" type="line"/>
      <point x="369" y="1065"/>
      <point x="419" y="1181"/>
      <point x="431" y="1424" type="curve" smooth="yes"/>
      <point x="434" y="1490"/>
      <point x="435" y="1573"/>
      <point x="435" y="1658" type="curve"/>
      <point x="125" y="1658" type="line"/>
      <point x="125" y="1347" type="line"/>
      <point x="277" y="1347" type="line"/>
      <point x="277" y="1256"/>
      <point x="262" y="1177"/>
      <point x="149" y="1177" type="curve"/>
    </contour>
    <contour>
      <point x="607" y="1065" type="line"/>
      <point x="808" y="1065"/>
      <point x="858" y="1181"/>
      <point x="870" y="1424" type="curve" smooth="yes"/>
      <point x="873" y="1490"/>
      <point x="873" y="1573"/>
      <point x="873" y="1658" type="curve"/>
      <point x="564" y="1658" type="line"/>
      <point x="564" y="1347" type="line"/>
      <point x="716" y="1347" type="line"/>
      <point x="716" y="1256"/>
      <point x="701" y="1177"/>
      <point x="588" y="1177" type="curve"/>
    </contour>
  </outline>
</glyph>
<glyph name="daggerdbl" format="1">
  <advance width="859"/>
  <unicode hex="2021"/>
  <outline>
    <contour>
      <point x="292" y="0" type="line"/>
      <point x="574" y="0" type="line"/>
      <point x="574" y="482" type="line"/>
      <point x="802" y="482" type="line"/>
      <point x="802" y="674" type="line"/>
      <point x="574" y="674" type="line"/>
      <point x="574" y="979" type="line"/>
      <point x="802" y="979" type="line"/>
      <point x="802" y="1185" type="line"/>
      <point x="574" y="1185" type="line"/>
      <point x="574" y="1658" type="line"/>
      <point x="292" y="1658" type="line"/>
      <point x="292" y="1185" type="line"/>
      <point x="57" y="1185" type="line"/>
      <point x="57" y="979" type="line"/>
      <point x="292" y="979" type="line"/>
      <point x="292" y="674" type="line"/>
      <point x="57" y="674" type="line"/>
      <point x="57" y="482" type="line"/>
      <point x="292" y="482" type="line"/>
    </contour>
  </outline>
</glyph>
<glyph name="ellipsis" format="1">
  <advance width="1426"/>
  <unicode hex="2026"/>
  <outline>
    <contour>
      <point x="57" y="0" type="line"/>
      <point x="400" y="0" type="line"/>
      <point x="400" y="336" type="line"/>
      <point x="57" y="336" type="line"/>
    </contour>
    <contour>
      <point x="537" y="0" type="line"/>
      <point x="880" y="0" type="line"/>
      <point x="880" y="336" type="line"/>
      <point x="537" y="336" type="line"/>
    </contour>
    <contour>
      <point x="1026" y="1" type="line"/>
      <point x="1370" y="1" type="line"/>
      <point x="1370" y="337" type="line"/>
      <point x="1026" y="337" type="line"/>
    </contour>
  </outline>
</glyph>
<glyph name="guilsinglright" format="1">
  <advance width="556"/>
  <unicode hex="203A"/>
  <outline>
    <contour>
      <point x="73" y="40" type="line"/>
      <point x="500" y="523" type="line"/>
      <point x="500" y="639" type="line"/>
      <point x="73" y="1123" type="line"/>
      <point x="73" y="790" type="line"/>
      <point x="296" y="582" type="line"/>
      <point x="73" y="373" type="line"/>
    </contour>
  </outline>
</glyph>
<glyph name="afii61352" format="1">
  <advance width="2115"/>
  <unicode hex="2116"/>
  <outline>
    <contour>
      <point x="99" y="0" type="line"/>
      <point x="447" y="0" type="line"/>
      <point x="447" y="782" type="line"/>
      <point x="747" y="0" type="line"/>
      <point x="1025" y="0" type="line"/>
      <point x="1025" y="1658" type="line"/>
      <point x="690" y="1658" type="line"/>
      <point x="690" y="946" type="line"/>
      <point x="388" y="1658" type="line"/>
      <point x="99" y="1658" type="line"/>
    </contour>
    <contour>
      <point x="1608" y="237" type="curve" smooth="yes"/>
      <point x="1561" y="237"/>
      <point x="1537" y="267"/>
      <point x="1537" y="345" type="curve" smooth="yes"/>
      <point x="1537" y="839" type="line" smooth="yes"/>
      <point x="1537" y="917"/>
      <point x="1561" y="947"/>
      <point x="1608" y="947" type="curve" smooth="yes"/>
      <point x="1658" y="947"/>
      <point x="1682" y="920"/>
      <point x="1682" y="839" type="curve" smooth="yes"/>
      <point x="1682" y="345" type="line" smooth="yes"/>
      <point x="1682" y="264"/>
      <point x="1658" y="237"/>
    </contour>
    <contour>
      <point x="1607" y="-22" type="curve" smooth="yes"/>
      <point x="1855" y="-22"/>
      <point x="2042" y="95"/>
      <point x="2042" y="351" type="curve" smooth="yes"/>
      <point x="2042" y="833" type="line" smooth="yes"/>
      <point x="2042" y="1089"/>
      <point x="1855" y="1206"/>
      <point x="1607" y="1206" type="curve" smooth="yes"/>
      <point x="1360" y="1206"/>
      <point x="1177" y="1088"/>
      <point x="1177" y="833" type="curve" smooth="yes"/>
      <point x="1177" y="351" type="line" smooth="yes"/>
      <point x="1177" y="96"/>
      <point x="1360" y="-22"/>
    </contour>
  </outline>
</glyph>
<glyph name="trademark" format="1">
  <advance width="1860"/>
  <unicode hex="2122"/>
  <outline>
    <contour>
      <point x="832" y="623" type="line"/>
      <point x="1037" y="623" type="line"/>
      <point x="1037" y="1204" type="line"/>
      <point x="1209" y="623" type="line"/>
      <point x="1321" y="623" type="line"/>
      <point x="1489" y="1199" type="line"/>
      <point x="1489" y="623" type="line"/>
      <point x="1696" y="623" type="line"/>
      <point x="1696" y="1658" type="line"/>
      <point x="1421" y="1658" type="line"/>
      <point x="1261" y="1049" type="line"/>
      <point x="1099" y="1658" type="line"/>
      <point x="832" y="1658" type="line"/>
    </contour>
    <contour>
      <point x="323" y="623" type="line"/>
      <point x="563" y="623" type="line"/>
      <point x="563" y="1451" type="line"/>
      <point x="759" y="1451" type="line"/>
      <point x="759" y="1658" type="line"/>
      <point x="121" y="1658" type="line"/>
      <point x="121" y="1451" type="line"/>
      <point x="323" y="1451" type="line"/>
    </contour>
  </outline>
</glyph>
<glyph name="partialdiff" format="1">
  <advance width="1110"/>
  <unicode hex="2202"/>
  <outline>
    <contour>
      <point x="501" y="-26" type="curve" smooth="yes"/>
      <point x="728" y="-26"/>
      <point x="953" y="-22"/>
      <point x="997" y="482" type="curve"/>
      <point x="997" y="482"/>
      <point x="1043" y="1023"/>
      <point x="1043" y="1055" type="curve" smooth="yes"/>
      <point x="1043" y="1595"/>
      <point x="637" y="1678"/>
      <point x="386" y="1678" type="curve"/>
      <point x="302" y="1423" type="line"/>
      <point x="611" y="1397"/>
      <point x="693" y="1277"/>
      <point x="693" y="1099" type="curve" smooth="yes"/>
      <point x="693" y="1072"/>
      <point x="691" y="1043"/>
      <point x="687" y="1014" type="curve"/>
      <point x="621" y="1076"/>
      <point x="504" y="1115"/>
      <point x="410" y="1115" type="curve" smooth="yes"/>
      <point x="247" y="1115"/>
      <point x="130" y="991"/>
      <point x="116" y="790" type="curve"/>
      <point x="74" y="306" type="line" smooth="yes"/>
      <point x="73" y="296"/>
      <point x="73" y="285"/>
      <point x="73" y="275" type="curve" smooth="yes"/>
      <point x="73" y="50"/>
      <point x="302" y="-26"/>
    </contour>
    <contour>
      <point x="507" y="201" type="curve" smooth="yes"/>
      <point x="457" y="201"/>
      <point x="428" y="235"/>
      <point x="428" y="276" type="curve" smooth="yes"/>
      <point x="428" y="276"/>
      <point x="428" y="283"/>
      <point x="428" y="284" type="curve" smooth="yes"/>
      <point x="480" y="803" type="line" smooth="yes"/>
      <point x="486" y="860"/>
      <point x="520" y="897"/>
      <point x="580" y="897" type="curve" smooth="yes"/>
      <point x="606" y="897"/>
      <point x="636" y="889"/>
      <point x="667" y="874" type="curve"/>
      <point x="609" y="285" type="line"/>
      <point x="602" y="206"/>
      <point x="534" y="201"/>
    </contour>
  </outline>
</glyph>
<glyph name="product" format="1">
  <advance width="1283"/>
  <unicode hex="220F"/>
  <outline>
    <contour>
      <point x="99" y="-390" type="line"/>
      <point x="453" y="-390" type="line"/>
      <point x="453" y="1367" type="line"/>
      <point x="830" y="1367" type="line"/>
      <point x="830" y="-390" type="line"/>
      <point x="1184" y="-390" type="line"/>
      <point x="1184" y="1658" type="line"/>
      <point x="99" y="1658" type="line"/>
    </contour>
  </outline>
</glyph>
<glyph name="infinity" format="1">
  <advance width="1344"/>
  <unicode hex="221E"/>
  <outline>
    <contour>
      <point x="366" y="184" type="curve" smooth="yes"/>
      <point x="488" y="184"/>
      <point x="594" y="281"/>
      <point x="672" y="368" type="curve"/>
      <point x="754" y="290"/>
      <point x="872" y="206"/>
      <point x="968" y="207" type="curve"/>
      <point x="1164" y="207"/>
      <point x="1286" y="399"/>
      <point x="1286" y="597" type="curve" smooth="yes"/>
      <point x="1286" y="794"/>
      <point x="1164" y="986"/>
      <point x="968" y="986" type="curve"/>
      <point x="872" y="988"/>
      <point x="754" y="903"/>
      <point x="672" y="825" type="curve"/>
      <point x="594" y="912"/>
      <point x="488" y="1009"/>
      <point x="366" y="1009" type="curve" smooth="yes"/>
      <point x="157" y="1009"/>
      <point x="58" y="792"/>
      <point x="58" y="597" type="curve" smooth="yes"/>
      <point x="58" y="401"/>
      <point x="157" y="184"/>
    </contour>
    <contour>
      <point x="367" y="464" type="curve" smooth="yes"/>
      <point x="330" y="463"/>
      <point x="285" y="489"/>
      <point x="285" y="597" type="curve" smooth="yes"/>
      <point x="285" y="704"/>
      <point x="330" y="731"/>
      <point x="367" y="729" type="curve" smooth="yes"/>
      <point x="435" y="728"/>
      <point x="522" y="666"/>
      <point x="603" y="597" type="curve"/>
      <point x="522" y="527"/>
      <point x="426" y="465"/>
    </contour>
    <contour>
      <point x="980" y="471" type="curve" smooth="yes"/>
      <point x="907" y="466"/>
      <point x="824" y="525"/>
      <point x="743" y="597" type="curve"/>
      <point x="824" y="669"/>
      <point x="907" y="728"/>
      <point x="980" y="722" type="curve" smooth="yes"/>
      <point x="995" y="721"/>
      <point x="1046" y="702"/>
      <point x="1046" y="597" type="curve" smooth="yes"/>
      <point x="1046" y="491"/>
      <point x="995" y="472"/>
    </contour>
  </outline>
</glyph>
<glyph name="uniFB01" format="1">
  <advance width="1165"/>
  <unicode hex="FB01"/>
  <outline>
    <contour>
      <point x="131" y="0" type="line"/>
      <point x="498" y="0" type="line"/>
      <point x="498" y="941" type="line"/>
      <point x="704" y="941" type="line"/>
      <point x="704" y="0" type="line"/>
      <point x="1066" y="0" type="line"/>
      <point x="1066" y="1184" type="line"/>
      <point x="498" y="1184" type="line"/>
      <point x="498" y="1285" type="line" smooth="yes"/>
      <point x="498" y="1354"/>
      <point x="530" y="1370"/>
      <point x="568" y="1370" type="curve" smooth="yes"/>
      <point x="581" y="1370"/>
      <point x="594" y="1368"/>
      <point x="606" y="1366" type="curve"/>
      <point x="606" y="1614" type="line"/>
      <point x="551" y="1623"/>
      <point x="501" y="1627"/>
      <point x="457" y="1627" type="curve" smooth="yes"/>
      <point x="201" y="1627"/>
      <point x="131" y="1483"/>
      <point x="131" y="1280" type="curve" smooth="yes"/>
      <point x="131" y="1184" type="line"/>
      <point x="27" y="1184" type="line"/>
      <point x="27" y="941" type="line"/>
      <point x="131" y="941" type="line"/>
    </contour>
    <contour>
      <point x="725" y="1390" type="line"/>
      <point x="1066" y="1390" type="line"/>
      <point x="1066" y="1625" type="line"/>
      <point x="725" y="1625" type="line"/>
    </contour>
  </outline>
</glyph>
